<svg width="28" height="28" viewBox="0 0 28 28" fill="none" xmlns="http://www.w3.org/2000/svg">
<circle cx="13.5627" cy="14.2443" r="13.5627" fill="#FB6E67"/>
<path d="M18.2913 17.4831L14.0193 21.4796L11.5915 20.2163L9.28748 17.8047L7.81793 14.5432C7.7873 13.5939 7.74443 11.6493 7.81793 11.4655C7.89142 11.2818 9.34912 9.27593 10.0688 8.29597C10.8344 7.86723 12.4299 7.00977 12.6871 7.00977H15.9026L18.2913 9.67404L19.3478 12.4761L18.2913 17.4831Z" fill="white"/>
<path d="M13.5626 22.0295C13.3925 22.0295 13.2251 21.9852 13.0785 21.9012C11.8234 21.1707 10.6925 20.245 9.72839 19.159C8.05791 17.2552 7.21094 15.1196 7.21094 12.8113C7.21094 9.30871 10.0607 6.45898 13.5632 6.45898C17.0658 6.45898 19.9155 9.30871 19.9155 12.8113C19.9155 15.1202 19.0685 17.2559 17.3974 19.1596C16.4332 20.2454 15.3023 21.1708 14.0473 21.9012C13.8996 21.9854 13.7325 22.0297 13.5626 22.0295ZM13.5632 7.43691C10.5995 7.43691 8.18821 9.84817 8.18821 12.8119C8.18821 14.0244 8.57586 18.2012 13.5632 21.0529C18.5506 18.2045 18.9382 14.025 18.9382 12.8119C18.9382 9.84817 16.527 7.43691 13.5632 7.43691Z" fill="white"/>
<path d="M13.563 16.2335C12.6562 16.2325 11.7868 15.8718 11.1455 15.2305C10.5043 14.5893 10.1436 13.7199 10.1426 12.813C10.1436 11.9062 10.5043 11.0368 11.1455 10.3955C11.7868 9.75431 12.6562 9.39361 13.563 9.39258C14.4699 9.39361 15.3393 9.75431 15.9805 10.3955C16.6218 11.0368 16.9825 11.9062 16.9835 12.813C16.9825 13.7199 16.6218 14.5893 15.9805 15.2305C15.3393 15.8718 14.4699 16.2325 13.563 16.2335V16.2335ZM13.563 10.3699C12.2157 10.3699 11.1199 11.4657 11.1199 12.813C11.1199 14.1604 12.2157 15.2562 13.563 15.2562C14.9104 15.2562 16.0062 14.1604 16.0062 12.813C16.0062 11.4657 14.9104 10.3699 13.563 10.3699Z" fill="white"/>
<circle cx="13.5633" cy="12.8113" r="2.44608" fill="#FB6E67"/>
</svg>
