<svg width="28" height="28" viewBox="0 0 28 28" fill="none" xmlns="http://www.w3.org/2000/svg">
<circle cx="13.5685" cy="14.1193" r="13.5627" fill="#FB6E67"/>
<path d="M16.78 20.5948C16.1247 20.5937 15.4834 20.4054 14.9315 20.052L14.9139 20.0409C12.0483 18.108 9.58165 15.6416 7.64851 12.7762C7.64524 12.7723 7.63413 12.7533 7.6302 12.7468C6.7638 11.388 6.95801 9.63366 8.10493 8.48608L8.51688 8.07413C8.79478 7.79689 9.16422 7.64453 9.55721 7.64453C9.95085 7.64453 10.3196 7.79754 10.5975 8.07479L12.3317 9.8089C12.9038 10.381 12.9051 11.3135 12.3336 11.8869C12.2878 11.9325 12.2514 11.9866 12.2264 12.0462C12.2015 12.1059 12.1886 12.1698 12.1884 12.2344C12.1883 12.299 12.2008 12.363 12.2254 12.4228C12.25 12.4826 12.2861 12.5369 12.3317 12.5827L15.1067 15.3565C15.1989 15.4487 15.3225 15.4997 15.4533 15.4997C15.5177 15.4999 15.5814 15.4874 15.6409 15.4628C15.7004 15.4382 15.7544 15.4021 15.7999 15.3565C16.0778 15.0786 16.4472 14.9262 16.8409 14.9262C17.2345 14.9262 17.6039 15.0792 17.8812 15.3565L19.6146 17.0906C19.8901 17.3667 20.0448 17.7409 20.0448 18.1309C20.0448 18.521 19.8901 18.8951 19.6146 19.1712L19.204 19.5825C18.887 19.9032 18.5095 20.1577 18.0934 20.3315C17.6773 20.5052 17.2309 20.5947 16.78 20.5948ZM9.55721 8.62536C9.49275 8.62517 9.4289 8.63773 9.36931 8.66231C9.30972 8.68688 9.25558 8.72299 9.21 8.76856L8.79805 9.18051C8.40112 9.57376 8.15134 10.0914 8.09051 10.6468C8.02969 11.2023 8.16151 11.7617 8.46391 12.2315C10.3253 14.9893 12.6998 17.3633 15.4579 19.2242C15.8527 19.4768 16.3114 19.6113 16.78 19.612C17.4294 19.612 18.044 19.3556 18.5096 18.8894L18.9202 18.4781C18.9658 18.4326 19.0019 18.3785 19.0266 18.319C19.0513 18.2595 19.064 18.1957 19.064 18.1312C19.064 18.0668 19.0513 18.003 19.0266 17.9435C19.0019 17.884 18.9658 17.8299 18.9202 17.7844L17.1868 16.0502C17.1413 16.0045 17.0872 15.9682 17.0276 15.9435C16.968 15.9188 16.9041 15.9062 16.8395 15.9064C16.7088 15.9064 16.5852 15.9574 16.493 16.0496C16.2151 16.3275 15.8456 16.4799 15.452 16.4799C15.2588 16.4804 15.0674 16.4426 14.8888 16.3688C14.7102 16.2949 14.5481 16.1864 14.4117 16.0496L11.6366 13.2758C11.4996 13.1395 11.3911 12.9773 11.3172 12.7987C11.2434 12.6202 11.2057 12.4287 11.2063 12.2355C11.2063 11.8438 11.3574 11.4757 11.6326 11.1984C11.6353 11.1984 11.6366 11.1971 11.6379 11.1958C11.7297 11.1038 11.7813 10.9792 11.7813 10.8492C11.7813 10.7193 11.7297 10.5946 11.6379 10.5027L9.90377 8.76791C9.85832 8.72239 9.80428 8.68635 9.74479 8.66188C9.68529 8.63741 9.62154 8.625 9.55721 8.62536V8.62536Z" fill="white"/>
<path d="M15.3833 15.9083L16.3393 15.6693L17.0802 15.3825L19.3985 17.6291V18.6329L18.323 19.6606L16.0525 20.1624L9.64741 15.1196C8.97822 13.9724 7.62071 11.6159 7.54423 11.3673C7.46775 11.1188 7.70356 9.97319 7.83103 9.43146L9.45621 7.92578C10.0298 8.40378 11.2057 9.37411 11.3204 9.43146C11.4638 9.50316 12.2047 10.5787 12.2047 10.7459C12.2047 10.8798 11.9019 11.4231 11.7506 11.678V12.5623C12.117 13.0403 12.8834 14.0346 13.0173 14.1875C13.1511 14.3405 13.8697 15.0479 14.2123 15.3825L15.3833 15.9083Z" fill="white"/>
</svg>
