<svg width="110" height="25" viewBox="0 0 110 25" fill="none" xmlns="http://www.w3.org/2000/svg">
<path d="M53.5111 23.0012H51.5683V10.405H53.45V12.0335H53.486C53.7672 11.4808 54.2 11.0198 54.7337 10.7043C55.2675 10.3888 55.8801 10.232 56.4998 10.2522C58.9209 10.2522 60.4858 12.1699 60.4858 15.1374C60.4858 18.1049 58.935 20.0313 56.5359 20.0313C55.9282 20.0526 55.3267 19.9028 54.8 19.5989C54.2732 19.2951 53.8424 18.8494 53.5566 18.3127H53.5111V23.0012ZM55.9855 11.89C54.5006 11.89 53.5025 13.1954 53.5025 15.1382C53.5025 17.1116 54.477 18.3864 55.9855 18.3864C57.5277 18.3864 58.4865 17.1421 58.4865 15.1382C58.4865 13.1342 57.5277 11.89 55.9855 11.89ZM42.6634 23.0012H40.7198V10.405H42.6014V12.0335H42.6375C42.9187 11.4811 43.3514 11.0203 43.885 10.705C44.4186 10.3896 45.031 10.2328 45.6505 10.2529C48.0716 10.2529 49.6365 12.1707 49.6365 15.1382C49.6365 18.1057 48.0857 20.0321 45.6866 20.0321C45.0789 20.0533 44.4774 19.9035 43.9507 19.5997C43.4239 19.2959 42.9931 18.8502 42.7073 18.3135H42.6634V23.0012ZM45.1378 11.89C43.6528 11.89 42.6548 13.1954 42.6548 15.1382C42.6548 17.1116 43.6293 18.3864 45.1378 18.3864C46.6799 18.3864 47.6388 17.1421 47.6388 15.1382C47.6388 13.1342 46.6799 11.89 45.1378 11.89ZM6.44935 24.8386C4.81467 24.8386 3.54847 23.0244 2.62332 21.7025C1.41996 19.8917 0.603227 17.852 0.224211 15.711C-0.25673 13.4996 0.0412917 11.19 1.06782 9.17307C1.57706 8.25806 2.31481 7.4907 3.20908 6.94587C4.10335 6.40104 5.12359 6.09734 6.17024 6.06442H6.2408C7.10064 6.11713 7.94242 6.33403 8.72067 6.7034H8.72851H8.73321H8.73792C9.22346 6.94348 9.74772 7.09558 10.2864 7.15264C10.7972 7.09057 11.2942 6.94433 11.7572 6.71986H11.765H11.7721H11.776C12.6763 6.30229 13.6465 6.05609 14.6369 5.99386C14.7514 5.99386 14.8854 6.00091 15.0352 6.01424C15.9329 6.04322 16.8116 6.28075 17.6017 6.70804C18.3918 7.13533 19.0715 7.74064 19.5872 8.47607C18.7783 8.97698 18.1081 9.67312 17.6384 10.5006C17.1686 11.328 16.9143 12.2602 16.8988 13.2116C16.8907 13.9445 17.0345 14.6713 17.3211 15.3459C17.6077 16.0206 18.0309 16.6286 18.5641 17.1317C19.0468 17.597 19.6114 17.9691 20.2293 18.2293V18.2356C19.835 19.4907 19.2509 20.6782 18.4974 21.7566C17.3998 23.4078 16.3508 24.7767 14.7098 24.801H14.6173C13.9832 24.788 13.3601 24.6332 12.7937 24.3478H12.789C12.1111 24.0164 11.3678 23.8402 10.6133 23.8319C9.82546 23.8353 9.04843 24.0156 8.33963 24.3596H8.33571H8.32787H8.32395C7.76393 24.6346 7.15512 24.7963 6.53246 24.8355H6.44935V24.8386ZM71.1963 20.0854C69.9452 20.1359 68.7123 19.7719 67.6894 19.0497C67.2567 18.7194 66.9029 18.2971 66.6536 17.8133C66.4042 17.3295 66.2655 16.7963 66.2476 16.2523H68.2359C68.3786 17.5279 69.6252 18.3848 71.3398 18.3848C72.9714 18.3848 74.1552 17.5412 74.1552 16.3785C74.1552 15.3718 73.4394 14.7658 71.7624 14.3542L70.0799 13.9488C67.698 13.3741 66.5886 12.2616 66.5886 10.4489C66.5886 8.22388 68.5314 6.67073 71.3124 6.67073C74.0525 6.67073 75.9381 8.18939 75.9993 10.4489H74.0392C73.9232 9.16706 72.8679 8.37128 71.2857 8.37128C69.7333 8.37128 68.6498 9.1702 68.6498 10.3149C68.6498 11.2298 69.3327 11.7716 71.0074 12.1863L72.4374 12.5368C73.4972 12.7196 74.4908 13.1758 75.3203 13.8602C75.6201 14.1552 75.854 14.5103 76.0067 14.9022C76.1594 15.2941 76.2274 15.7138 76.2062 16.1339C76.2062 18.573 74.2862 20.0862 71.1955 20.0862L71.1963 20.0854ZM105.366 20.0493C102.614 20.0493 100.904 18.1841 100.904 15.1821C100.849 13.8812 101.271 12.605 102.092 11.5944C102.493 11.1483 102.987 10.7953 103.538 10.5602C104.09 10.3251 104.686 10.2135 105.286 10.2333C105.867 10.211 106.447 10.3144 106.985 10.5363C107.522 10.7581 108.006 11.0934 108.403 11.5191C109.198 12.4835 109.607 13.7086 109.55 14.9571V15.6235H102.865V15.7403C102.828 16.0924 102.867 16.4483 102.979 16.784C103.091 17.1197 103.274 17.4275 103.515 17.6866C103.757 17.9458 104.051 18.1502 104.377 18.2862C104.704 18.4222 105.056 18.4865 105.41 18.475C105.876 18.514 106.342 18.3997 106.736 18.1496C107.131 17.8996 107.433 17.5273 107.597 17.0896H109.442C109.372 17.5141 109.219 17.9206 108.991 18.2857C108.764 18.6509 108.466 18.9675 108.116 19.2175C107.312 19.7814 106.348 20.0732 105.366 20.0501L105.366 20.0493ZM105.288 11.799C104.643 11.81 104.028 12.0749 103.576 12.5363C103.125 12.9978 102.874 13.6185 102.877 14.264H107.609C107.629 13.9471 107.584 13.6295 107.476 13.3308C107.368 13.0322 107.199 12.759 106.982 12.528C106.764 12.2971 106.501 12.1133 106.209 11.9882C105.917 11.8631 105.602 11.7992 105.285 11.8006L105.288 11.799ZM88.4111 20.0501C87.8059 20.0732 87.2027 19.9683 86.6409 19.7421C86.0791 19.516 85.5715 19.1736 85.1512 18.7376C84.2999 17.7367 83.8605 16.4499 83.9218 15.1374C83.8612 13.827 84.3016 12.5426 85.1535 11.545C86.0295 10.7046 87.1964 10.2353 88.4103 10.2353C89.6243 10.2353 90.7912 10.7046 91.6672 11.545C92.5197 12.5423 92.9604 13.8268 92.8997 15.1374C92.9607 16.4499 92.5213 17.7366 91.6703 18.7376C91.25 19.1734 90.7424 19.5156 90.1808 19.7418C89.6192 19.9679 89.0161 20.073 88.4111 20.0501ZM88.4111 11.8367C87.0281 11.8367 85.9022 13.3208 85.9022 15.1452C85.9022 16.9697 87.0273 18.453 88.4111 18.453C89.7949 18.453 90.92 16.9689 90.92 15.1452C90.92 13.3216 89.7918 11.8367 88.4111 11.8367ZM81.4506 19.9333C79.5344 19.9333 78.7849 19.2167 78.7849 17.3781V11.9464H77.4097V10.405H78.7865V8.16586H80.7387V10.4058H82.538V11.9464H80.7387V17.1641C80.7387 17.9858 81.0938 18.3519 81.8904 18.3519C82.1042 18.3531 82.3179 18.3379 82.5294 18.3064V19.8455C82.1734 19.9108 81.8125 19.9402 81.4506 19.9333ZM29.6266 19.8713H27.5325L32.2202 6.88791H34.3974L39.0851 19.8698H36.9526L35.7648 16.3605H30.8168L29.629 19.8698L29.6266 19.8713ZM33.2629 9.04554L31.3288 14.7407H35.2489L33.3178 9.04554H33.2629ZM96.7845 19.869H94.8409V10.405H96.6943V12.0162H96.7398C96.8593 11.5063 97.1504 11.0528 97.5643 10.7319C97.9782 10.4109 98.4898 10.2418 99.0135 10.2529C99.2371 10.2559 99.46 10.2801 99.6791 10.3251V12.133C99.3959 12.0516 99.1018 12.0151 98.8073 12.0248C98.5249 12.0126 98.2432 12.0618 97.9816 12.1691C97.7201 12.2764 97.485 12.4391 97.2925 12.6462C97.1 12.8532 96.9548 13.0995 96.8668 13.3681C96.7788 13.6368 96.7502 13.9213 96.7829 14.2021V19.8698L96.7845 19.869ZM10.335 5.73434C10.2539 5.73528 10.1727 5.73214 10.0919 5.72494C10.0013 4.32455 10.4706 2.9455 11.3965 1.89106C12.3347 0.822968 13.6409 0.147727 15.0548 0C15.1691 1.44248 14.7125 2.87218 13.7831 3.98127C13.3637 4.49929 12.8399 4.92315 12.2458 5.2252C11.6517 5.52726 11.0006 5.70074 10.335 5.73434Z" fill="white"/>
</svg>
