<svg width="120" height="22" viewBox="0 0 120 22" fill="none" xmlns="http://www.w3.org/2000/svg">
<path d="M113.665 21.4816H111.488L113.56 16.7664L109.858 8.34083H112.038L114.649 14.2872L117.263 8.34083H119.442L113.665 21.4816ZM60.3449 18.8156L62.0857 18.0872C62.2658 18.5575 62.5832 18.9627 62.9968 19.2501C63.4103 19.5375 63.9008 19.6937 64.4044 19.6986C64.732 19.7169 65.0596 19.6639 65.3647 19.5431C65.6698 19.4223 65.9449 19.2366 66.1712 18.999C66.3974 18.7613 66.5693 18.4774 66.6749 18.1667C66.7806 17.8561 66.8175 17.5262 66.7831 17.1999V16.3093C66.4848 16.6748 66.1046 16.9648 65.6732 17.1556C65.2418 17.3465 64.7715 17.4329 64.3004 17.4078C63.1987 17.3862 62.1477 16.9403 61.3666 16.1631C60.928 15.7357 60.5805 15.224 60.345 14.6588C60.1094 14.0936 59.9907 13.4866 59.9959 12.8743C60.0033 11.7001 60.4532 10.5719 61.2558 9.71481C61.6487 9.28699 62.1256 8.94488 62.6568 8.70991C63.1879 8.47494 63.7619 8.35217 64.3427 8.34928C64.8002 8.33764 65.2549 8.4245 65.676 8.60398C66.097 8.78345 66.4746 9.05134 66.7831 9.38949V8.62306H68.6843V16.7597C68.7598 18.0609 68.3192 19.3394 67.4582 20.318C67.0573 20.7077 66.5814 21.0118 66.0593 21.2118C65.5372 21.4119 64.9799 21.5036 64.4213 21.4816C63.5542 21.4905 62.7041 21.242 61.9784 20.7674C61.2527 20.2928 60.6843 19.6135 60.3449 18.8156ZM61.9876 12.9005C61.9545 13.2463 61.9941 13.5952 62.104 13.9247C62.2138 14.2542 62.3915 14.5571 62.6256 14.8137C62.8596 15.0704 63.1449 15.2752 63.4629 15.4149C63.7809 15.5546 64.1247 15.6261 64.472 15.6249C64.8194 15.6236 65.1626 15.5496 65.4797 15.4076C65.7967 15.2657 66.0804 15.0588 66.3126 14.8005C66.5448 14.5422 66.7204 14.238 66.8279 13.9077C66.9354 13.5774 66.9725 13.2283 66.9369 12.8828C66.9622 12.5422 66.9194 12.1999 66.8111 11.876C66.7027 11.5521 66.5309 11.2531 66.3057 10.9963C66.0805 10.7396 65.8063 10.5302 65.4993 10.3806C65.1923 10.2309 64.8586 10.1439 64.5176 10.1246C64.1666 10.1332 63.8209 10.2127 63.5015 10.3585C63.1821 10.5043 62.8955 10.7133 62.6591 10.9728C62.4227 11.2324 62.2413 11.5372 62.1259 11.8688C62.0105 12.2004 61.9634 12.5519 61.9876 12.9022V12.9005ZM11.7239 10.9933L14.6815 13.9466L2.20827 20.7726C2.12127 20.8218 2.03058 20.8642 1.93703 20.8994L11.7239 10.9933ZM0.630642 19.7679C0.623037 18.7522 0.543606 2.64293 0.538536 1.43457C0.514772 1.22143 0.549394 1.00584 0.638699 0.810853C0.728003 0.615871 0.868632 0.448831 1.04554 0.327603L11.2964 10.5674L1.09033 20.8968C0.926841 20.7609 0.799371 20.5868 0.719194 20.3899C0.639016 20.193 0.608602 19.9794 0.630642 19.7679ZM27.4174 15.2201C26.7803 14.5762 26.2763 13.8132 25.9342 12.9746C25.5921 12.1359 25.4186 11.238 25.4237 10.3323C25.4287 9.42656 25.6121 8.53069 25.9635 7.69587C26.3149 6.86105 26.8273 6.10365 27.4715 5.46695C28.7646 4.13613 30.5287 3.36649 32.3838 3.32381C34.2389 3.28114 36.0365 3.96885 37.3894 5.2388L36.0475 6.63138C35.1197 5.73707 33.8801 5.23938 32.5914 5.24387C31.2329 5.2432 29.9297 5.78224 28.9686 6.74241C28.0075 7.70258 27.4671 9.00522 27.4665 10.3638C27.4658 11.7223 28.0048 13.0255 28.965 13.9866C29.9252 14.9478 31.2278 15.4881 32.5864 15.4888C34.5476 15.4888 36.923 14.4832 37.1621 11.6516H32.5745V9.73594H39.038C39.1216 10.1531 39.1604 10.578 39.1538 11.0035C39.179 11.8616 39.0277 12.7158 38.7092 13.5131C38.3907 14.3104 37.9119 15.0337 37.3024 15.6383C36.0315 16.8146 34.3522 17.4493 32.621 17.4078C31.6501 17.4169 30.6875 17.2276 29.7923 16.8515C28.8971 16.4755 28.0881 15.9206 27.4149 15.2209L27.4174 15.2201ZM74.6619 16.2028C74.2155 15.7712 73.8639 15.2512 73.6296 14.676C73.3954 14.1009 73.2836 13.4832 73.3015 12.8625C73.2693 12.285 73.3543 11.7071 73.5514 11.1634C73.7485 10.6197 74.0536 10.1215 74.4484 9.69888C74.8431 9.27624 75.3194 8.93789 75.8484 8.70421C76.3774 8.47052 76.9482 8.34634 77.5265 8.33914C78.3721 8.33882 79.1946 8.61477 79.8689 9.125C80.5039 9.60706 80.996 10.2525 81.2927 10.9925L81.6079 11.7319L75.5357 14.2508C75.7246 14.6764 76.0376 15.035 76.4336 15.2798C76.8297 15.5247 77.2904 15.6443 77.7555 15.6231C78.2018 15.6307 78.642 15.5194 79.0311 15.3007C79.4202 15.082 79.744 14.7636 79.9694 14.3784L81.5344 15.4186C81.1131 16.0351 80.5469 16.5388 79.8855 16.8855C79.2242 17.2321 78.4878 17.4112 77.7411 17.4069C76.5976 17.4157 75.4944 16.9849 74.6594 16.2036L74.6619 16.2028ZM75.8289 10.9528C75.6067 11.1913 75.4379 11.4745 75.3335 11.7833C75.2292 12.0922 75.1918 12.4197 75.2239 12.7442L79.2799 11.0499C79.1218 10.7456 78.88 10.4928 78.583 10.3213C78.2859 10.1499 77.946 10.067 77.6034 10.0824C77.2632 10.0955 76.9296 10.1798 76.624 10.3297C76.3184 10.4796 76.0475 10.6918 75.8289 10.9528ZM51.2509 16.0406C50.4284 15.1783 49.9738 14.0296 49.9834 12.838C49.9815 12.2425 50.0984 11.6527 50.3272 11.103C50.556 10.5533 50.8921 10.0547 51.3159 9.6364C51.7397 9.21813 52.2426 8.88856 52.7953 8.66697C53.348 8.44539 53.9393 8.33623 54.5346 8.3459C55.6687 8.34496 56.7652 8.75196 57.624 9.49258C58.101 9.91752 58.4788 10.4422 58.7306 11.0293C58.9823 11.6165 59.1019 12.2518 59.0808 12.8904C59.0902 13.4855 58.9798 14.0765 58.7563 14.6282C58.5328 15.18 58.2007 15.6811 57.7797 16.1019C57.3587 16.5228 56.8574 16.8547 56.3056 17.078C55.7538 17.3013 55.1628 17.4115 54.5676 17.4019C53.9514 17.4112 53.3397 17.2954 52.7696 17.0614C52.1995 16.8274 51.6829 16.4801 51.2509 16.0406ZM54.5617 10.1255C54.2173 10.1221 53.8759 10.1898 53.559 10.3244C53.242 10.4591 52.9562 10.6577 52.7196 10.908C52.231 11.4403 51.9657 12.14 51.9785 12.8625C51.9529 13.2144 52 13.5679 52.1169 13.9008C52.2337 14.2338 52.4179 14.5391 52.6578 14.7978C52.8978 15.0565 53.1885 15.2631 53.5117 15.4046C53.8349 15.5461 54.1839 15.6196 54.5367 15.6205C54.8896 15.6214 55.2389 15.5496 55.5628 15.4097C55.8867 15.2697 56.1784 15.0646 56.4196 14.8071C56.6609 14.5496 56.8465 14.2451 56.9651 13.9128C57.0836 13.5804 57.1324 13.2272 57.1085 12.8752C57.1304 12.5262 57.0814 12.1765 56.9645 11.847C56.8476 11.5176 56.6653 11.2152 56.4284 10.958C56.1916 10.7009 55.9051 10.4943 55.5863 10.3508C55.2676 10.2073 54.923 10.1298 54.5735 10.123L54.5617 10.1255ZM41.2426 16.0406C40.4201 15.1782 39.9656 14.0296 39.9751 12.838C39.9732 12.2424 40.0902 11.6524 40.3191 11.1026C40.548 10.5527 40.8843 10.0541 41.3082 9.63579C41.7322 9.21749 42.2353 8.88796 42.7882 8.66647C43.3411 8.44499 43.9325 8.33601 44.528 8.3459C45.6625 8.34523 46.7595 8.75218 47.6191 9.49258C48.0953 9.91805 48.4724 10.4428 48.7236 11.0299C48.9749 11.617 49.0943 12.2521 49.0733 12.8904C49.0805 13.4913 48.9667 14.0875 48.7386 14.6435C48.5106 15.1995 48.1729 15.704 47.7458 16.1267C46.8628 16.9607 45.6899 17.4182 44.4754 17.4025C43.261 17.3867 42.1003 16.8989 41.2393 16.0422L41.2426 16.0406ZM44.5534 10.1255H44.5492C44.2051 10.1226 43.8641 10.1905 43.5475 10.3251C43.2309 10.4598 42.9453 10.6582 42.7087 10.908C42.2207 11.4407 41.9555 12.1402 41.9677 12.8625C41.9421 13.2144 41.9891 13.5679 42.106 13.9008C42.2229 14.2338 42.4071 14.5391 42.647 14.7978C42.887 15.0565 43.1776 15.2631 43.5009 15.4046C43.8241 15.5461 44.173 15.6196 44.5259 15.6205C44.8788 15.6214 45.228 15.5496 45.552 15.4097C45.8759 15.2697 46.1676 15.0646 46.4088 14.8071C46.65 14.5496 46.8357 14.2451 46.9542 13.9128C47.0727 13.5804 47.1216 13.2272 47.0977 12.8752C47.1195 12.5258 47.0702 12.1756 46.9529 11.8458C46.8356 11.516 46.6527 11.2134 46.4153 10.9562C46.1778 10.699 45.8907 10.4925 45.5713 10.3493C45.2519 10.2061 44.9068 10.1291 44.5568 10.123L44.5534 10.1255ZM101.624 16.4217C101.34 16.0627 101.133 15.649 101.015 15.2062C100.898 14.7635 100.873 14.3013 100.943 13.8486C101.055 13.1093 101.422 12.4325 101.98 11.9348C102.538 11.4372 103.253 11.1499 104 11.1226C104.176 11.1049 104.361 11.0956 104.549 11.0956C105.397 11.1154 106.239 11.2438 107.055 11.4775C106.973 10.9176 106.683 10.4093 106.241 10.0551C105.8 9.70087 105.241 9.52704 104.677 9.56863C104.21 9.55843 103.749 9.67325 103.342 9.90119C102.935 10.1291 102.596 10.4619 102.361 10.8649L100.756 9.78918C101.194 9.14346 101.786 8.61628 102.478 8.25462C103.17 7.89296 103.94 7.70805 104.721 7.71637C105.334 7.7057 105.943 7.82008 106.511 8.05252C107.078 8.28497 107.592 8.63062 108.022 9.06838C108.419 9.50763 108.72 10.0252 108.905 10.5877C109.09 11.1502 109.155 11.7451 109.096 12.3343V17.1382H107.102V16.06C106.661 16.6202 106.054 17.0276 105.369 17.2244C104.958 17.3357 104.534 17.3925 104.108 17.3934C103.649 17.4118 103.192 17.3351 102.765 17.1681C102.337 17.0012 101.949 16.7476 101.624 16.4233V16.4217ZM103.018 14.1925C103.014 14.3732 103.046 14.5529 103.114 14.7206C103.181 14.8883 103.282 15.0404 103.411 15.1678C103.539 15.2952 103.692 15.3951 103.86 15.4615C104.028 15.5279 104.208 15.5593 104.389 15.5538C104.56 15.5526 104.73 15.5288 104.896 15.4828C105.431 15.3536 105.92 15.0794 106.309 14.6903C106.698 14.3012 106.973 13.8123 107.103 13.2774C106.564 13.0897 106.008 12.9564 105.443 12.8794C105.24 12.848 105.034 12.8316 104.828 12.8304C103.513 12.8329 103.031 13.5664 103.019 14.1942L103.018 14.1925ZM98.9382 17.1365H96.944V3.78538H98.9391V17.1365H98.9382ZM88.3578 17.1365H86.3662V3.78538H88.3604H91.1945C92.3223 3.78538 93.4038 4.23337 94.2012 5.03079C94.9986 5.82821 95.4466 6.90975 95.4466 8.03747C95.4466 9.1652 94.9986 10.2467 94.2012 11.0442C93.4038 11.8416 92.3223 12.2896 91.1945 12.2896H88.3604V17.1323L88.3578 17.1365ZM88.3629 10.2987H91.1937C91.7848 10.2873 92.3479 10.0444 92.7619 9.62231C93.176 9.2002 93.4079 8.63253 93.4079 8.04127C93.4079 7.45001 93.176 6.88235 92.7619 6.46024C92.3479 6.03813 91.7848 5.79527 91.1937 5.78383H88.3629V10.2987ZM72.1953 17.1382H70.2003V3.78707H72.1953V17.1382ZM12.1481 10.5649L15.2299 7.44596L19.4735 9.76045C20.5196 10.3308 19.9805 11.044 19.4735 11.3237L15.2333 13.645L12.1481 10.5649ZM1.77309 0.205078C1.92529 0.223245 2.07283 0.269367 2.20827 0.341125L14.6789 7.14514L11.7214 10.1382L1.77309 0.205078Z" fill="white"/>
</svg>
