<svg width="170" height="47" viewBox="0 0 170 47" fill="none" xmlns="http://www.w3.org/2000/svg">
<path d="M58.1041 35.2422H62.5307V27.0173H70.8127V35.2422H75.2393V13.966H70.8127V23.1619H62.5307V13.966H58.1041V35.2422ZM85.8553 35.5849C90.4818 35.5849 94.1944 32.1579 94.1944 27.4457C94.1944 22.7335 90.4818 19.3065 85.8553 19.3065C81.2288 19.3065 77.5162 22.7335 77.5162 27.4457C77.5162 32.1579 81.2288 35.5849 85.8553 35.5849ZM85.8553 31.7295C83.5135 31.7295 81.9428 29.9588 81.9428 27.4457C81.9428 24.9611 83.5135 23.1619 85.8553 23.1619C88.1971 23.1619 89.7678 24.9611 89.7678 27.4457C89.7678 29.9588 88.1971 31.7295 85.8553 31.7295ZM102.506 35.5849C106.247 35.5849 108.846 33.6143 108.846 30.7299C108.846 28.5024 107.361 26.9031 104.59 26.1606L101.706 25.3895C101.192 25.2467 100.107 24.9611 100.107 24.0187C100.107 23.219 100.849 22.7335 102.106 22.7335C103.791 22.7335 105.133 23.5332 105.647 24.8754L108.846 23.3904C107.846 20.8487 105.304 19.3065 102.106 19.3065C98.4503 19.3065 95.9657 21.277 95.9657 24.1615C95.9657 26.3033 97.3365 27.9597 100.164 28.7023L102.905 29.4162C103.448 29.559 104.705 29.8732 104.705 30.9013C104.705 31.758 103.848 32.3007 102.506 32.3007C100.735 32.3007 99.3356 31.3582 98.5074 29.6161L95.3374 31.1012C96.3084 33.9285 99.1072 35.5849 102.506 35.5849ZM119.604 19.3065C117.604 19.3065 115.919 20.0205 114.834 21.277V19.6492H110.836V40.9539H115.12V34.0142C116.176 34.9852 117.747 35.5849 119.575 35.5849C124.087 35.5849 127.514 31.9865 127.514 27.4457C127.514 22.8763 124.03 19.3065 119.604 19.3065ZM119.061 31.7295C116.748 31.7295 115.12 29.9588 115.12 27.4457C115.12 24.9325 116.748 23.1619 119.061 23.1619C121.403 23.1619 123.088 24.9611 123.088 27.4457C123.088 29.9303 121.403 31.7295 119.061 31.7295ZM129.522 18.2498H133.806V13.966H129.522V18.2498ZM129.522 35.2422H133.806V19.6492H129.522V35.2422ZM144.144 35.4135C144.801 35.4135 145.572 35.3564 146.143 35.2707V31.9008C145.743 31.9579 145.4 31.9865 145.143 31.9865C143.344 31.9865 142.487 31.2154 142.487 29.6161V23.3618H146.143V19.6492H142.487V14.9656H138.204V17.2503C138.204 18.8496 137.318 19.6492 135.719 19.6492H135.519V23.3618H138.204V29.6161C138.204 33.2716 140.374 35.4135 144.144 35.4135ZM154.777 19.3065C151.465 19.3065 148.78 20.9629 147.866 23.5332L151.55 25.3038C152.007 23.9044 153.264 23.0191 154.777 23.0191C156.205 23.0191 157.176 23.7902 157.176 24.9611V25.4751L152.293 26.5033C149.123 27.1601 147.295 28.6737 147.295 30.987C147.295 33.5858 149.523 35.5849 153.064 35.5849C154.863 35.5849 156.291 35.0423 157.462 33.8143V35.2422H161.46V24.9611C161.46 21.6197 158.747 19.3065 154.777 19.3065ZM153.721 32.4434C152.493 32.4434 151.722 31.8723 151.722 30.9298C151.722 30.2159 152.179 29.6733 153.064 29.4734L157.176 28.5595V29.302C157.176 31.0441 155.663 32.4434 153.721 32.4434ZM163.742 35.2422H168.026V13.966H163.742V35.2422Z" fill="white"/>
<path d="M43.4469 16.4797C41.6921 14.725 39.3136 13.7386 36.8312 13.7386H33.1239C32.7512 13.7386 32.4469 13.4368 32.4469 13.0615V9.3543C32.4469 6.87436 31.4605 4.49331 29.7083 2.74112C27.9536 0.986398 25.5751 0 23.0926 0C20.6126 0 18.2316 0.986398 16.4794 2.74112C14.7247 4.49331 13.7383 6.87436 13.7383 9.3543V13.7386H27.5732C30.2636 13.7386 32.4469 15.9193 32.4469 18.6122V32.4472H36.8312C39.3111 32.4472 41.6921 31.4608 43.4469 29.7086C45.2016 27.9539 46.1855 25.5753 46.1855 23.0929C46.188 20.6129 45.2016 18.2344 43.4469 16.4797Z" fill="#6995FC"/>
<path d="M13.7386 27.5757V13.7383H9.3543C6.87436 13.7383 4.49331 14.7247 2.74112 16.4794C0.986398 18.2341 0 20.6126 0 23.0951C0 25.5751 0.986398 27.9561 2.74112 29.7083C4.49584 31.463 6.87436 32.4469 9.3543 32.4469H13.0615C13.4368 32.4469 13.7386 32.7512 13.7386 33.1239V36.8312C13.7386 39.3111 14.725 41.6921 16.4797 43.4443C18.2344 45.1991 20.6129 46.1829 23.0929 46.1829C25.5728 46.1829 27.9539 45.1965 29.7086 43.4443C31.4633 41.6896 32.4497 39.3111 32.4497 36.8286V32.4443H18.6122C15.9218 32.4469 13.7386 30.2662 13.7386 27.5757Z" fill="#99CEFF"/>
<path d="M27.5757 13.7383H13.7383V27.5732C13.7383 30.2636 15.919 32.4469 18.6119 32.4469H32.4469V18.6119C32.4469 15.9215 30.2662 13.7383 27.5757 13.7383Z" fill="#B3DAFF"/>
</svg>
