<svg width="100" height="100" viewBox="0 0 100 100" fill="none" xmlns="http://www.w3.org/2000/svg">
<path d="M28.1514 47.7119H28.8154V49.208L28.4678 48.4541L28.1514 47.7119Z" fill="#EBFAF8"/>
<rect width="100" height="100" rx="24" fill="#EAF0FF"/>
<g filter="url(#filter0_d_1203:28403)">
<path fill-rule="evenodd" clip-rule="evenodd" d="M48.6389 23.5049C47.8105 23.5049 47.1389 24.1765 47.1389 25.0049V40.8908C47.1341 40.9588 47.1315 41.0275 47.1311 41.0967C47.1156 41.2205 47.124 41.3785 47.1341 41.5692V41.5692C47.1357 41.599 47.1373 41.6295 47.1389 41.6609V41.7205H47.1418C47.2096 43.1866 47.0838 46.2745 38.9311 50.4958C36.4773 51.7838 34.5181 54.6468 34.5181 54.6468C34.1575 55.2282 33.8145 55.8494 33.5437 56.5707L33.2448 57.4671C33.1641 57.7137 33.1086 57.9327 33.0524 58.1546C33.0308 58.2399 33.0091 58.3257 32.9858 58.4136C32.7264 59.5114 32.5801 60.5672 32.4411 61.5707C32.4239 61.6948 32.4068 61.818 32.3896 61.9404C32.2351 63.0503 32.0584 64.0983 31.7537 65.1052C31.7257 65.1862 31.6977 65.2726 31.6695 65.3593L31.6695 65.3593C31.6149 65.5276 31.5599 65.6973 31.5035 65.8323C31.4122 66.0516 31.346 66.2003 31.2032 66.4108C30.9559 66.795 30.6012 67.1527 30.1949 67.4883C29.7028 67.8934 29.1361 68.2577 28.5538 68.6321C28.1713 68.8781 27.7819 69.1284 27.4026 69.3974C26.4473 70.0628 25.5258 70.9298 25.1328 72.0234C25.7584 71.0446 26.7461 70.4705 27.7647 70.0392C28.1598 69.8697 28.5655 69.719 28.978 69.5657L28.9781 69.5656C29.6367 69.3209 30.3131 69.0696 30.9927 68.7248C31.5418 68.4436 32.0997 68.0962 32.5942 67.6149C32.8312 67.4 33.0918 67.0791 33.2802 66.8038C33.4221 66.5998 33.5282 66.4169 33.6361 66.2311L33.6362 66.231L33.6362 66.231C33.6816 66.1527 33.7274 66.0739 33.7762 65.9928C34.3842 64.9079 34.8419 63.7613 35.2438 62.6646L35.3066 62.4931C35.6849 61.4598 36.0429 60.4821 36.467 59.6088C36.4996 59.5457 36.5325 59.4798 36.5654 59.4137L36.5655 59.4136C36.647 59.25 36.7292 59.0851 36.81 58.9582L37.2074 58.2929C37.4179 57.9808 37.7108 57.6482 38.0346 57.3199C39.2593 56.107 40.9727 54.95 42.6066 54.061C42.6104 54.0588 42.6142 54.057 42.6182 54.0554C42.6234 54.0533 42.6288 54.0515 42.6348 54.0496L42.6404 54.0477C46.2965 52.9576 48.6914 50.6173 50.2427 48.2221C51.7706 50.3388 54.0331 52.5026 57.36 54.0491C57.3621 54.0501 57.3642 54.051 57.3663 54.0519C57.3697 54.0532 57.3732 54.0543 57.3766 54.0554C57.3791 54.0562 57.3816 54.057 57.384 54.0579C57.3874 54.0591 57.3907 54.0605 57.3938 54.0623C59.0277 54.9514 60.7411 56.1084 61.9658 57.3213C62.2896 57.6495 62.5825 57.9822 62.793 58.2942L63.1904 58.9596C63.2711 59.0864 63.3534 59.2513 63.4349 59.4149L63.435 59.415C63.4679 59.4811 63.5008 59.5471 63.5334 59.6102C63.9575 60.4835 64.3155 61.4612 64.6938 62.4944L64.6938 62.4946L64.7566 62.666C65.1585 63.7626 65.6162 64.9093 66.2242 65.9941C66.273 66.0753 66.3188 66.1541 66.3643 66.2324L66.3643 66.2325C66.4722 66.4183 66.5784 66.6012 66.7202 66.8052C66.9086 67.0804 67.1692 67.4013 67.4062 67.6162C67.9007 68.0976 68.4586 68.445 69.0077 68.7261C69.6874 69.0709 70.3637 69.3223 71.0224 69.567C71.4349 69.7203 71.8406 69.8711 72.2357 70.0406C73.2543 70.4719 74.242 71.0459 74.8676 72.0248C74.4746 70.9311 73.5531 70.0641 72.5978 69.3988C72.2185 69.1297 71.8291 68.8794 71.4466 68.6335L71.4465 68.6334C70.8643 68.2591 70.2976 67.8947 69.8055 67.4897C69.3992 67.154 69.0445 66.7963 68.7972 66.4122C68.6544 66.2017 68.5882 66.053 68.4969 65.8337C68.4406 65.6987 68.3855 65.529 68.3309 65.3607L68.3309 65.3607C68.3027 65.274 68.2747 65.1876 68.2467 65.1065C67.942 64.0997 67.7653 63.0517 67.6108 61.9418C67.5939 61.8214 67.5771 61.7002 67.5602 61.5782L67.5593 61.5721L67.5593 61.5719C67.4203 60.5685 67.274 59.5127 67.0146 58.4149C66.9913 58.327 66.9696 58.2412 66.948 58.1559L66.9479 58.1557C66.8918 57.9339 66.8363 57.715 66.7556 57.4685L66.4567 56.572C66.1859 55.8508 65.8429 55.2296 65.4823 54.6482C65.4823 54.6482 63.5231 51.7852 61.0693 50.4972C53.1325 47.0809 52.9498 41.4736 52.9442 41.1125L52.9443 41.1106C52.9443 41.097 52.9442 41.0836 52.944 41.0701V25.0049C52.944 24.1765 52.2724 23.5049 51.444 23.5049H48.6389Z" fill="#4B7FFB" fill-opacity="0.01"/>
<path d="M82.2627 69.0743C82.2627 73.1296 78.9684 76.4577 74.9043 76.4577C74.9043 76.4577 57.3599 77.887 57.3599 63.2659V41.1701C57.3599 37.1163 57.9752 35.2969 61.6551 35.2969C59.8755 35.2969 68.4615 34.1915 76.3748 49.9828C83.7347 64.6687 82.2627 69.0743 82.2627 69.0743ZM17.7373 69.1052C17.7373 73.1649 21.0316 76.4548 25.0957 76.4548C25.0957 76.4548 42.6402 77.9238 42.6402 63.2924V41.1775C42.6402 37.1192 42.0249 35.2984 38.345 35.2984C40.1246 35.2984 31.5386 34.1915 23.6252 49.9975C16.2654 64.6966 17.7373 69.1052 17.7373 69.1052Z" fill="#4B7FFB" fill-opacity="0.01"/>
</g>
<path fill-rule="evenodd" clip-rule="evenodd" d="M48.6389 23.5049C47.8105 23.5049 47.1389 24.1765 47.1389 25.0049V40.8908C47.1341 40.9588 47.1315 41.0275 47.1311 41.0967C47.1156 41.2205 47.124 41.3785 47.1341 41.5692V41.5692C47.1357 41.599 47.1373 41.6295 47.1389 41.6609V41.7205H47.1418C47.2096 43.1866 47.0838 46.2745 38.9311 50.4958C36.4773 51.7838 34.5181 54.6468 34.5181 54.6468C34.1575 55.2282 33.8145 55.8494 33.5437 56.5707L33.2448 57.4671C33.1641 57.7137 33.1086 57.9327 33.0524 58.1546C33.0308 58.2399 33.0091 58.3257 32.9858 58.4136C32.7264 59.5114 32.5801 60.5672 32.4411 61.5707C32.4239 61.6948 32.4068 61.818 32.3896 61.9404C32.2351 63.0503 32.0584 64.0983 31.7537 65.1052C31.7257 65.1862 31.6977 65.2726 31.6695 65.3593L31.6695 65.3593C31.6149 65.5276 31.5599 65.6973 31.5035 65.8323C31.4122 66.0516 31.346 66.2003 31.2032 66.4108C30.9559 66.795 30.6012 67.1527 30.1949 67.4883C29.7028 67.8934 29.1361 68.2577 28.5538 68.6321C28.1713 68.8781 27.7819 69.1284 27.4026 69.3974C26.4473 70.0628 25.5258 70.9298 25.1328 72.0234C25.7584 71.0446 26.7461 70.4705 27.7647 70.0392C28.1598 69.8697 28.5655 69.719 28.978 69.5657L28.9781 69.5656C29.6367 69.3209 30.3131 69.0696 30.9927 68.7248C31.5418 68.4436 32.0997 68.0962 32.5942 67.6149C32.8312 67.4 33.0918 67.0791 33.2802 66.8038C33.4221 66.5998 33.5282 66.4169 33.6361 66.2311L33.6362 66.231L33.6362 66.231C33.6816 66.1527 33.7274 66.0739 33.7762 65.9928C34.3842 64.9079 34.8419 63.7613 35.2438 62.6646L35.3066 62.4931C35.6849 61.4598 36.0429 60.4821 36.467 59.6088C36.4996 59.5457 36.5325 59.4798 36.5654 59.4137L36.5655 59.4136C36.647 59.25 36.7292 59.0851 36.81 58.9582L37.2074 58.2929C37.4179 57.9808 37.7108 57.6482 38.0346 57.3199C39.2593 56.107 40.9727 54.95 42.6066 54.061C42.6104 54.0588 42.6142 54.057 42.6182 54.0554C42.6234 54.0533 42.6288 54.0515 42.6348 54.0496L42.6404 54.0477C46.2965 52.9576 48.6914 50.6173 50.2427 48.2221C51.7706 50.3388 54.0331 52.5026 57.36 54.0491C57.3621 54.0501 57.3642 54.051 57.3663 54.0519C57.3697 54.0532 57.3732 54.0543 57.3766 54.0554C57.3791 54.0562 57.3816 54.057 57.384 54.0579C57.3874 54.0591 57.3907 54.0605 57.3938 54.0623C59.0277 54.9514 60.7411 56.1084 61.9658 57.3213C62.2896 57.6495 62.5825 57.9822 62.793 58.2942L63.1904 58.9596C63.2711 59.0864 63.3534 59.2513 63.4349 59.4149L63.435 59.415C63.4679 59.4811 63.5008 59.5471 63.5334 59.6102C63.9575 60.4835 64.3155 61.4612 64.6938 62.4944L64.6938 62.4946L64.7566 62.666C65.1585 63.7626 65.6162 64.9093 66.2242 65.9941C66.273 66.0753 66.3188 66.1541 66.3643 66.2324L66.3643 66.2325C66.4722 66.4183 66.5784 66.6012 66.7202 66.8052C66.9086 67.0804 67.1692 67.4013 67.4062 67.6162C67.9007 68.0976 68.4586 68.445 69.0077 68.7261C69.6874 69.0709 70.3637 69.3223 71.0224 69.567C71.4349 69.7203 71.8406 69.8711 72.2357 70.0406C73.2543 70.4719 74.242 71.0459 74.8676 72.0248C74.4746 70.9311 73.5531 70.0641 72.5978 69.3988C72.2185 69.1297 71.8291 68.8794 71.4466 68.6335L71.4465 68.6334C70.8643 68.2591 70.2976 67.8947 69.8055 67.4897C69.3992 67.154 69.0445 66.7963 68.7972 66.4122C68.6544 66.2017 68.5882 66.053 68.4969 65.8337C68.4406 65.6987 68.3855 65.529 68.3309 65.3607L68.3309 65.3607C68.3027 65.274 68.2747 65.1876 68.2467 65.1065C67.942 64.0997 67.7653 63.0517 67.6108 61.9418C67.5939 61.8214 67.5771 61.7002 67.5602 61.5782L67.5593 61.5721L67.5593 61.5719C67.4203 60.5685 67.274 59.5127 67.0146 58.4149C66.9913 58.327 66.9696 58.2412 66.948 58.1559L66.9479 58.1557C66.8918 57.9339 66.8363 57.715 66.7556 57.4685L66.4567 56.572C66.1859 55.8508 65.8429 55.2296 65.4823 54.6482C65.4823 54.6482 63.5231 51.7852 61.0693 50.4972C53.1325 47.0809 52.9498 41.4736 52.9442 41.1125L52.9443 41.1106C52.9443 41.097 52.9442 41.0836 52.944 41.0701V25.0049C52.944 24.1765 52.2724 23.5049 51.444 23.5049H48.6389Z" fill="#4B7FFB"/>
<path d="M82.2627 69.0743C82.2627 73.1296 78.9684 76.4577 74.9043 76.4577C74.9043 76.4577 57.3599 77.887 57.3599 63.2659V41.1701C57.3599 37.1163 57.9752 35.2969 61.6551 35.2969C59.8755 35.2969 68.4615 34.1915 76.3748 49.9828C83.7347 64.6687 82.2627 69.0743 82.2627 69.0743ZM17.7373 69.1052C17.7373 73.1649 21.0316 76.4548 25.0957 76.4548C25.0957 76.4548 42.6402 77.9238 42.6402 63.2924V41.1775C42.6402 37.1192 42.0249 35.2984 38.345 35.2984C40.1246 35.2984 31.5386 34.1915 23.6252 49.9975C16.2654 64.6966 17.7373 69.1052 17.7373 69.1052Z" fill="#4B7FFB"/>
<defs>
<filter id="filter0_d_1203:28403" x="1.61719" y="13.5049" width="96.7656" height="84.991" filterUnits="userSpaceOnUse" color-interpolation-filters="sRGB">
<feFlood flood-opacity="0" result="BackgroundImageFix"/>
<feColorMatrix in="SourceAlpha" type="matrix" values="0 0 0 0 0 0 0 0 0 0 0 0 0 0 0 0 0 0 127 0" result="hardAlpha"/>
<feOffset dy="6"/>
<feGaussianBlur stdDeviation="8"/>
<feColorMatrix type="matrix" values="0 0 0 0 0.294118 0 0 0 0 0.501961 0 0 0 0 0.984314 0 0 0 0.25 0"/>
<feBlend mode="normal" in2="BackgroundImageFix" result="effect1_dropShadow_1203:28403"/>
<feBlend mode="normal" in="SourceGraphic" in2="effect1_dropShadow_1203:28403" result="shape"/>
</filter>
</defs>
</svg>
